<?xml version="1.0" encoding="utf-8"?>
<!-- Generator: Adobe Illustrator 24.0.1, SVG Export Plug-In . SVG Version: 6.00 Build 0)  -->
<svg version="1.1" id="Layer_1" xmlns="http://www.w3.org/2000/svg" xmlns:xlink="http://www.w3.org/1999/xlink" x="0px" y="0px"
	 viewBox="0 0 472.4 339.3" style="enable-background:new 0 0 472.4 339.3;" xml:space="preserve">
<style type="text/css">
	.st0{opacity:0.21;}
	.st1{fill:#EBEBEB;}
	.st2{fill:#E98074;}
	.st3{fill:#263238;}
	.st4{fill:#455A64;}
	.st5{fill:#FAFAFA;}
	.st6{opacity:0.34;fill:#E98074;}
	.st7{opacity:0.44;}
	.st8{fill:#FFE5D4;}
	.st9{opacity:0.72;fill:#E98074;}
	.st10{opacity:0.85;}
	.st11{fill:#FFF0E8;}
	.st12{opacity:0.33;fill:#E98074;}
	.st13{opacity:0.17;}
	.st14{fill:#FFBE9D;}
	.st15{fill:#EB996E;}
	.st16{opacity:0.4;}
	.st17{fill:#FFFFFF;}
	.st18{opacity:0.5;}
	.st19{opacity:0.8;}
	.st20{opacity:0.3;}
	.st21{opacity:3.000000e-02;}
</style>
<g id="freepik--background-simple--inject-159" class="st0">
	<path class="st1" d="M374.7,211.7c31.6-24.3,38.6-94.6,32.9-119.8C398.6,52,372,15.6,334.4,4s-81.2,2.2-106,34
		c-9.4,11.9-16,25.9-24.5,38.5s-19.3,24.4-33.4,29c-19.1,6.1-39.3-2.2-58.7-7.2c-20.5-5.3-42.3-6.9-62.4-0.5S11,119.4,3.9,140.2
		c-9.1,26.8-1.8,63.8,17.8,83.6s50.7,38.3,77.1,44.8C191.1,291,314.4,284.5,374.7,211.7"/>
</g>
<g id="freepik--Plant--inject-159">
	<path class="st2" d="M146,228.8c-7.4-11.3-6.3-27.6,2.5-37.8c2.8-3.2,6.6-5.9,10.8-5.6s7.8,4.1,9.1,8.1s0.9,8.6,0.1,12.8
		c-1.1,5.9-2.9,12-7,16.4S151.2,231.7,146,228.8"/>
	<path class="st2" d="M150.1,283.4c-2.7-6.8-0.8-14.5,4.7-19.2c1.7-1.4,3.9-2.5,6.1-1.9c2.2,0.8,3.7,2.7,3.9,5
		c0.2,2.3-0.2,4.5-1.1,6.6c-1.1,3-2.6,5.9-5.1,7.8S152.5,285.4,150.1,283.4"/>
	<path class="st2" d="M132.2,279.5c1.9-10.4-3.1-20.8-12.4-25.9c-2.8-1.5-6.3-2.3-9.1-0.9s-4.3,5-4.1,8.3s1.8,6.3,3.5,9
		c2.4,3.9,5.4,7.6,9.5,9.6S129.3,283,132.2,279.5"/>
	<path class="st2" d="M133.5,252.3c3.5-11.5-2.5-25.4-12.5-31.9c-3.1-2-7.1-3.5-10.5-2.1s-5.6,5.3-5.7,9.1s1.4,7.5,3,10.9
		c2.4,4.8,5.4,9.5,9.9,12.3S129.6,256.1,133.5,252.3"/>
	<path class="st3" d="M140.6,308.3c-0.1-0.2-0.1-0.4-0.1-0.5c-0.1-0.4-0.1-1-0.2-1.6c0-0.4-0.1-0.7-0.2-1.1s-0.2-0.9-0.3-1.4
		c-0.2-1-0.4-2.1-0.7-3.3c-0.1-0.6-0.3-1.3-0.5-1.9s-0.4-1.3-0.6-2c-0.4-1.4-0.9-2.9-1.5-4.5c-2.5-6.7-5.9-13.1-10.1-18.9
		c-1-1.3-1.9-2.6-2.9-3.7l-1.4-1.6l-1.3-1.4c-0.8-0.9-1.6-1.7-2.4-2.4l-1-1l-0.9-0.8l-1.2-1.1c-0.1-0.1-0.3-0.3-0.4-0.4
		c0.2,0.1,0.3,0.2,0.5,0.3l1.3,1c0.3,0.2,0.6,0.5,0.9,0.7l1,1c0.7,0.7,1.6,1.5,2.4,2.4l1.4,1.4l1.4,1.6c1,1.1,1.9,2.4,3,3.7
		c2.1,2.9,4.1,6,5.8,9.1c1.7,3.2,3.2,6.5,4.4,9.9c0.5,1.6,1.1,3.1,1.4,4.5c0.2,0.7,0.4,1.4,0.6,2.1l0.4,1.9c0.3,1.2,0.5,2.4,0.6,3.3
		c0.1,0.5,0.2,0.9,0.2,1.4s0.1,0.8,0.1,1.2c0.1,0.6,0.1,1.2,0.1,1.6C140.6,307.9,140.6,308.1,140.6,308.3z"/>
	<path class="st3" d="M140.3,310.4c0-0.1,0-0.2,0-0.2c0-0.2,0-0.4,0-0.7c0.1-0.6,0.1-1.5,0.2-2.5c0.1-0.5,0.1-1.2,0.2-1.8
		s0.1-1.4,0.1-2.2c0-1.6,0.2-3.4,0.1-5.3c0-1,0-2,0-3.1s-0.1-2.2-0.2-3.4c-0.1-2.3-0.4-4.8-0.7-7.4c-1.5-11.3-4.7-22.3-9.7-32.5
		c-1.2-2.3-2.3-4.6-3.5-6.6c-0.6-1-1.1-2-1.7-2.9l-1.7-2.6c-1-1.7-2.1-3.1-3-4.4c-0.5-0.6-0.9-1.2-1.3-1.8l-1.2-1.4l-1.6-2l-0.4-0.5
		c-0.1-0.1-0.1-0.2-0.1-0.2c0.1,0,0.1,0.1,0.2,0.2l0.4,0.5l1.7,1.9l1.2,1.4c0.4,0.5,0.9,1.1,1.3,1.8c0.9,1.3,2.1,2.7,3.1,4.4
		l1.7,2.6c0.6,0.9,1.1,1.9,1.7,2.9c1.2,2,2.3,4.2,3.5,6.6c2.5,5.2,4.5,10.5,6.2,16c1.6,5.5,2.8,11.1,3.5,16.7
		c0.3,2.6,0.6,5.1,0.6,7.4c0,1.2,0.1,2.3,0.1,3.4s0,2.1,0,3.1c0,2-0.1,3.8-0.2,5.4c-0.1,0.8-0.1,1.5-0.1,2.2s-0.2,1.3-0.2,1.8
		c-0.1,1.1-0.2,1.9-0.3,2.5c0,0.3-0.1,0.5-0.1,0.7C140.4,310.3,140.4,310.3,140.3,310.4z"/>
	<path class="st3" d="M159.6,199.1c0,0.1-0.1,0.1-0.1,0.2l-0.3,0.6l-1.3,2.3c-0.3,0.5-0.6,1-0.9,1.6l-1,2l-1.1,2.3
		c-0.4,0.8-0.8,1.7-1.2,2.6s-0.8,1.9-1.3,2.9s-0.8,2.1-1.2,3.2c-0.2,0.6-0.4,1.1-0.6,1.7l-0.6,1.8c-0.4,1.2-0.8,2.4-1.2,3.7
		c-1.6,5.1-3.1,10.7-4.3,16.8s-2.1,11.8-2.7,17.1s-0.9,10.1-1,14.1c-0.1,2-0.1,3.8-0.1,5.4s0,3,0,4.1s0,2,0,2.6v0.7
		c0,0.1,0,0.2,0,0.2c0,0,0-0.1,0-0.2s0-0.4,0-0.7c0-0.6-0.1-1.5-0.1-2.6s-0.1-2.5-0.1-4.1s0-3.4,0.1-5.4c0.1-4,0.4-8.8,0.9-14.1
		s1.5-11.1,2.7-17.1s2.8-11.7,4.4-16.8c0.4-1.3,0.9-2.5,1.3-3.7l0.6-1.8l0.7-1.7c0.4-1.1,0.9-2.2,1.3-3.2s0.9-2,1.3-2.9
		s0.8-1.8,1.2-2.6s0.8-1.6,1.2-2.3l1-2c0.3-0.6,0.7-1.1,1-1.6l1.4-2.2c0.1-0.2,0.3-0.4,0.4-0.6S159.6,199.1,159.6,199.1z"/>
	<path class="st3" d="M157.1,268.7c-0.2,0.5-0.5,0.9-0.8,1.4c-0.5,0.9-1.3,2.1-2.2,3.8s-1.8,3.5-2.8,5.8c-1,2.4-1.9,4.9-2.7,7.4
		c-0.8,2.7-1.4,5.3-1.9,7.6s-0.8,4.5-0.9,6.3s-0.3,3.3-0.3,4.3c0,0.5,0,1.1-0.1,1.6c-0.1-0.5-0.1-1.1-0.1-1.6c0-1,0-2.5,0.2-4.3
		c0.2-2.1,0.4-4.3,0.8-6.4c0.9-5.2,2.5-10.2,4.7-15.1c0.9-2,1.8-3.9,2.9-5.8c0.9-1.6,1.7-2.9,2.3-3.7
		C156.4,269.5,156.8,269.1,157.1,268.7z"/>
	<polygon class="st4" points="126,303.2 158.6,303.2 154.7,336.5 130.1,336.5 	"/>
	<polygon class="st3" points="127.2,332.9 130,336.5 154.7,336.5 157.5,333 	"/>
	<path class="st5" d="M157.3,313c0,0.1-6.8,0.3-15.1,0.3s-15.1-0.1-15.1-0.3s6.8-0.2,15.1-0.2S157.3,312.9,157.3,313z"/>
	<path class="st5" d="M157.3,315.2c0,0.1-6.8,0.2-15.1,0.2s-15.1-0.1-15.1-0.2s6.8-0.2,15.1-0.2S157.3,315.1,157.3,315.2z"/>
	<path class="st5" d="M156.9,317.4c0,0.1-6.5,0.3-14.6,0.3s-14.6-0.1-14.6-0.3s6.5-0.2,14.6-0.2S156.9,317.2,156.9,317.4z"/>
</g>
<path class="st6" d="M84,136c-18.4,6.3-43,10.8-54.5,5.5s-20-17.1-20.6-29.8s7.3-25.6,19.2-29.9c7.2-2.6,15.6-2.3,22-6.7
	c6.4-4.4,9.2-12.2,14.1-18.2c11-12.9,32.8-13.3,45.6-2.2s19,32.4,12.3,48C115.4,118.3,106.9,128.7,84,136"/>
<g class="st7">
	<path class="st8" d="M282.9,273.5c-30.7-30.4-63.8-75.2-64.5-103.3s14.5-56.7,39.2-70.3s58.2-10.5,78.4,8.9
		c12.3,11.9,20,28.9,34.9,37.3s33.4,6.2,50.1,10.4c36.5,9.2,58.7,52.2,49.2,88.7c-9.5,36.4-45.9,69.6-83.6,71.6
		C348.9,318.6,319.9,311.8,282.9,273.5"/>
</g>
<circle class="st9" cx="43.1" cy="51.9" r="8.9"/>
<g class="st10">
	<circle class="st11" cx="93.7" cy="223.1" r="7"/>
</g>
<g class="st10">
	<circle class="st11" cx="66.9" cy="180.1" r="5.2"/>
</g>
<path class="st12" d="M13,73.2c0.1,2-1.4,3.8-3.4,3.9s-3.8-1.4-3.9-3.4c-0.1-2,1.4-3.8,3.4-3.9C11.1,69.7,12.9,71.2,13,73.2
	C13,73.2,13,73.2,13,73.2z"/>
<g class="st13">
	<path d="M97.1,197.7c0.1,1.9-1.3,3.6-3.2,3.7c-1.9,0.1-3.6-1.3-3.7-3.2c-0.1-1.9,1.3-3.6,3.2-3.7C95.3,194.4,97,195.8,97.1,197.7
		C97.1,197.7,97.1,197.7,97.1,197.7z"/>
</g>
<g id="freepik--character-2--inject-159">
	<path class="st14" d="M318.2,225.5l-16.7,25.7l-24.4-10.4l-13.8-7.2l-16.9,1.9l23.9,14.8l0,0l23.3,21.9c5.2,6,14.2,6.7,20.3,1.6
		c1.3-1.1,2.3-2.4,3.2-3.9l19-33.7L318.2,225.5z"/>
	<path class="st14" d="M273.2,239.7c-6.8-2.4-13.9-4.3-21-5.6c-0.4,0.5,0.1,2,0.7,2.4c0.6,0.5,1.3,0.8,2,0.9
		c0.7,0.1,1.4,0.3,2.1,0.6c0.9,0.6,1.6,1.4,2,2.4c1.9,3.1,6.3,5,10.7,4.8"/>
	<path class="st15" d="M269.6,245.3c-0.1,0-0.3,0.1-0.5,0.1c-0.4,0-0.9,0-1.3,0c-1.6-0.1-3.2-0.5-4.6-1.1c-1-0.4-2-1-2.8-1.8
		c-0.5-0.4-0.9-0.9-1.3-1.4c-0.4-0.5-0.7-1.1-1-1.6c-0.3-0.6-0.8-1-1.4-1.3c-0.6-0.2-1.3-0.4-2-0.5c-0.8-0.2-1.5-0.5-2.1-1
		c-0.3-0.3-0.5-0.6-0.7-1c-0.2-0.4-0.2-0.8-0.2-1.2c0-0.2,0.1-0.4,0.2-0.5l0.1-0.1h0.1c5.1,0.9,10.1,2.1,14.9,3.7
		c1.9,0.6,3.4,1.1,4.4,1.5c0.5,0.2,1.1,0.4,1.6,0.6c-0.6-0.1-1.1-0.3-1.6-0.4l-4.4-1.3c-4.9-1.5-9.9-2.7-14.9-3.5l0.2-0.1
		c0,0.1-0.1,0.1-0.1,0.2c0,0.7,0.2,1.3,0.7,1.8c0.6,0.4,1.2,0.7,1.9,0.9c0.7,0.1,1.4,0.3,2.1,0.6c0.7,0.3,1.2,0.8,1.5,1.5
		c1,2.1,2.8,3.7,4.9,4.7c1.4,0.7,2.9,1.1,4.5,1.2C269,245.3,269.6,245.2,269.6,245.3z"/>
	<path class="st2" d="M175,316.5L152.8,328l-3.6,4.2c-2.2,2.5-6.1,2.8-8.6,0.6c0,0,0,0,0,0l-31.1-27.1c0,0,1.3-4.4,4.4-3.4
		s27.9,8.5,27.9,8.5l20.7-12.8L175,316.5z"/>
	<g class="st16">
		<path class="st17" d="M175,316.5L152.8,328l-3.6,4.2c-2.2,2.5-6.1,2.8-8.6,0.6c0,0,0,0,0,0l-31.1-27.1c0,0,1.3-4.4,4.4-3.4
			s27.9,8.5,27.9,8.5l20.7-12.8L175,316.5z"/>
	</g>
	<path class="st2" d="M204.7,315.9l-5.4,9.9v11.6h-47.4c0,0-1.9-4.1,1.1-5.4s26.5-11.9,26.5-11.9l9.8-14.5L204.7,315.9z"/>
	<g class="st16">
		<path class="st17" d="M204.7,315.9l-5.4,9.9v11.6h-47.4c0,0-1.9-4.1,1.1-5.4s26.5-11.9,26.5-11.9l9.8-14.5L204.7,315.9z"/>
	</g>
	<path class="st2" d="M233.4,250.6c0,0-12.8,1-17.4,4s-62.1,44.3-62.1,44.3l14.2,22.5l39.7-18.8L233.4,250.6z"/>
	<g class="st18">
		<path d="M233.4,250.6c0,0-12.8,1-17.4,4s-62.1,44.3-62.1,44.3l14.2,22.5l39.7-18.8L233.4,250.6z"/>
	</g>
	<path class="st2" d="M370.1,301.2c0,0-4.9,21.4-6.1,24.7c-1.8,4.6-20,15.2-42.2,9.5c-23-5.9-77.7-50.3-77.7-50.3l-5.5,4l-34.2,31.8
		c0,0-19.6-8.1-19.6-16.2c0,0,41.6-63.5,45.4-64.6s7.7-2.4,12.3-1.4s73.8,38.9,73.8,38.9l0,0L370.1,301.2z"/>
	<g class="st18">
		<path d="M370.1,301.2c0,0-4.9,21.4-6.1,24.7c-1.8,4.6-20,15.2-42.2,9.5c-23-5.9-77.7-50.3-77.7-50.3l-5.5,4l-34.2,31.8
			c0,0-19.6-8.1-19.6-16.2c0,0,41.6-63.5,45.4-64.6s7.7-2.4,12.3-1.4s73.8,38.9,73.8,38.9l0,0L370.1,301.2z"/>
	</g>
	<path class="st3" d="M226.6,273.9c0.1,0.3,0.2,0.6,0.2,0.9c0.2,0.8,0.4,1.6,0.7,2.3l0.3,0.7c0.1,0.1,0.1,0.3,0.2,0.4l0.3,0.4
		l0.5,0.8l0.7,0.7c1,1.1,2.2,1.9,3.5,2.6c2.4,1.2,5,1.9,7.7,2.2c2.1,0.2,3.3,0.1,3.4,0.2c-0.3,0.1-0.6,0.1-0.9,0.1
		c-0.8,0.1-1.7,0.1-2.5,0c-2.7-0.1-5.4-0.9-7.9-2.1c-1.4-0.7-2.6-1.6-3.6-2.7l-0.7-0.8l-0.5-0.8l-0.3-0.4l-0.2-0.4l-0.3-0.8
		c-0.3-0.8-0.5-1.6-0.5-2.4C226.6,274.5,226.6,274.2,226.6,273.9z"/>
	<path class="st3" d="M244.1,285.1c-0.3-0.1-0.6-0.3-0.8-0.5c-0.7-0.5-1.4-0.9-2-1.5c-2.2-1.7-4-3.8-5.4-6.2
		c-1.3-2.4-2.2-5.1-2.5-7.9c-0.1-0.8-0.2-1.7-0.2-2.5c0-0.3,0-0.6,0-0.9c0.1,0,0.2,1.3,0.5,3.4c0.4,2.7,1.2,5.3,2.5,7.7
		c1.4,2.3,3.1,4.4,5.2,6.2C243.1,284.3,244.1,285,244.1,285.1z"/>
	<path class="st3" d="M204.4,320.9c-0.2,0-0.3-0.1-0.5-0.1l-1.4-0.5c-1.7-0.7-3.4-1.4-5-2.3c-2.5-1.3-4.9-2.9-7.1-4.7
		c-1.3-1.1-2.6-2.4-3.7-3.7c-1.3-1.5-2.3-3.2-2.9-5v-0.1l0.1-0.1l13.4-19.9c7.9-11.6,15.2-22,20.7-29.4c2.7-3.7,5-6.7,6.5-8.7
		l1.8-2.3l0.5-0.6l0.2-0.2c0,0,0,0.1-0.1,0.2l-0.4,0.6c-0.4,0.6-1,1.4-1.7,2.4l-6.4,8.8c-5.4,7.5-12.6,17.9-20.5,29.5
		c-4.9,7.2-9.5,14-13.5,19.8v-0.2c0.7,1.8,1.6,3.4,2.8,4.9c1.1,1.3,2.3,2.6,3.6,3.7c2.2,1.8,4.5,3.4,7,4.7c1.6,0.9,3.2,1.7,4.9,2.4
		l1.3,0.6C204.1,320.7,204.3,320.8,204.4,320.9z"/>
	<path class="st2" d="M177.6,316.1c-0.3-0.2-0.5-0.5-0.8-0.8c-0.5-0.5-1.1-1.3-1.9-2.3c-2-2.6-3.9-5.2-5.6-8
		c-1.7-2.8-3.3-5.6-4.8-8.6c-0.5-1.1-1-2.1-1.3-2.7c-0.2-0.3-0.3-0.7-0.4-1c0.2,0.3,0.4,0.6,0.6,0.9c0.4,0.7,0.8,1.6,1.4,2.6
		c1.2,2.2,2.9,5.2,4.9,8.5s4,6.1,5.5,8.1l1.8,2.4C177.3,315.5,177.5,315.8,177.6,316.1z"/>
	<path class="st2" d="M185.8,300.8c-0.7-0.7-1.4-1.5-1.9-2.3c-2.8-3.9-5.1-8.1-6.9-12.6c-0.4-0.9-0.7-1.9-0.9-2.8
		c0.5,0.9,0.9,1.8,1.3,2.7c0.8,1.7,1.8,4,3.2,6.4s2.7,4.6,3.7,6.1C184.8,299.1,185.3,300,185.8,300.8z"/>
	<path class="st2" d="M197.7,285.3c-0.5-0.5-1-1-1.4-1.6c-1-1.4-1.9-2.8-2.8-4.3c-0.8-1.5-1.5-3-2.2-4.6c-0.3-0.6-0.5-1.3-0.6-2
		c0.1-0.1,1.3,2.9,3.2,6.4S197.8,285.2,197.7,285.3z"/>
	<path class="st2" d="M208.2,268.3c-0.1,0.2-0.3,0.3-0.5,0.4l-1.4,1.2c-1.2,1-2.9,2.5-5.1,4.3c-4.3,3.6-10.3,8.4-17.2,13.6
		s-13.1,9.6-17.8,12.8c-2.3,1.6-4.2,2.8-5.5,3.7l-1.5,1c-0.2,0.1-0.4,0.2-0.5,0.3c0.2-0.1,0.3-0.3,0.5-0.4l1.5-1l5.4-3.8
		c4.6-3.2,10.8-7.8,17.6-12.9s12.9-9.9,17.2-13.4l5.2-4.1l1.4-1.1C207.9,268.6,208,268.4,208.2,268.3z"/>
	<path class="st2" d="M185.1,306.2c-1,0.5-2,1-3,1.4c-1.9,0.8-4.4,1.9-7.2,3.2s-5.3,2.6-7.1,3.5c-1,0.6-2,1-3,1.4
		c0.9-0.7,1.8-1.2,2.8-1.8c1.8-1,4.2-2.3,7-3.7s5.4-2.4,7.3-3.1C182.9,306.8,184,306.4,185.1,306.2z"/>
	<path class="st2" d="M254.7,246.8c-0.5-0.2-0.9-0.5-1.3-0.8c-0.8-0.5-2-1.3-3.6-2.1c-1.8-1-3.6-1.9-5.6-2.6
		c-2.3-0.9-4.8-1.3-7.3-1.1c-2.5,0.4-4.8,1.4-6.8,2.9c-1.7,1.2-3.2,2.5-4.7,4c-1.2,1.2-2.2,2.3-2.9,3c-0.3,0.4-0.7,0.7-1,1.1
		c0.3-0.4,0.6-0.8,0.9-1.2c0.6-0.8,1.5-1.9,2.8-3.1c1.4-1.5,3-2.9,4.7-4.1c2-1.6,4.5-2.6,7-3c2.6-0.2,5.1,0.2,7.5,1.1
		c1.9,0.7,3.8,1.6,5.6,2.7c1.5,0.9,2.7,1.7,3.5,2.3C254,246.2,254.4,246.5,254.7,246.8z"/>
	<path class="st2" d="M239.4,282.1c-0.2-0.5-0.4-1.1-0.5-1.6c-0.3-1.1-0.7-2.6-1.1-4.6c-2.1-10.1-2.7-20.4-2-30.7
		c0.2-2,0.3-3.6,0.5-4.7c0-0.6,0.1-1.1,0.3-1.7c0,0.6,0,1.1-0.1,1.7c-0.1,1.1-0.2,2.7-0.3,4.7c-0.3,5.1-0.2,10.3,0.1,15.4
		c0.3,5.1,1,10.2,1.9,15.3c0.3,1.9,0.7,3.5,0.9,4.6C239.2,281,239.3,281.5,239.4,282.1z"/>
	<path class="st3" d="M382,337.4c0,0.1-63,0.3-140.7,0.3s-140.7-0.1-140.7-0.3s63-0.3,140.7-0.3S382,337.3,382,337.4z"/>
	<path class="st2" d="M211,313.2c-0.3-0.1-0.7-0.2-1-0.3c-0.9-0.3-1.8-0.7-2.7-1.1c-3-1.4-5.7-3.2-8.1-5.4c-2.4-2.2-4.4-4.8-6-7.6
		c-0.5-0.8-0.9-1.7-1.3-2.6c-0.2-0.3-0.3-0.7-0.4-1c0.1,0,0.8,1.3,2,3.4c3.3,5.5,8.2,10,13.9,12.8
		C209.6,312.5,211.1,313.1,211,313.2z"/>
	<path class="st2" d="M220.9,303.7c-0.4-0.1-0.7-0.2-1.1-0.4c-0.7-0.3-1.7-0.8-2.8-1.4c-6.2-3.4-11.5-8.2-15.6-13.9
		c-0.6-0.9-1.2-1.7-1.7-2.7c-0.2-0.3-0.4-0.6-0.5-1c0.1,0,1,1.4,2.6,3.5c4.2,5.5,9.5,10.2,15.5,13.8
		C219.4,302.9,220.9,303.7,220.9,303.7z"/>
	<path class="st2" d="M232.3,294.4c-0.4-0.1-0.9-0.3-1.3-0.5c-0.8-0.3-1.9-0.9-3.3-1.6c-3.6-2-6.9-4.3-9.9-7c-3-2.7-5.7-5.7-8.2-9
		c-0.9-1.2-1.7-2.3-2.1-3c-0.3-0.4-0.5-0.7-0.7-1.1c0.3,0.3,0.6,0.6,0.9,1l2.3,2.9c2.5,3.1,5.3,6.1,8.2,8.8c3,2.7,6.3,5,9.7,7.1
		c1.3,0.8,2.4,1.4,3.2,1.8C231.5,293.9,231.9,294.1,232.3,294.4z"/>
	<path class="st2" d="M222.6,250.2c0.1,0,0,2.2,0.3,5.6c0.1,0.9,0.2,1.8,0.4,2.8s0.5,2,0.7,3.2c0.7,2.4,1.6,4.7,2.6,7
		c1.1,2.2,2.4,4.4,3.9,6.4c0.7,0.9,1.3,1.8,2,2.5s1.3,1.5,1.9,2.1c2.5,2.4,4.3,3.6,4.2,3.7c-0.4-0.2-0.9-0.5-1.3-0.8
		c-0.5-0.3-1-0.7-1.4-1.1c-0.5-0.5-1.2-0.9-1.8-1.5s-1.3-1.3-2-2s-1.4-1.6-2.1-2.5c-3-4-5.3-8.6-6.6-13.5c-0.3-1.1-0.5-2.2-0.7-3.2
		c-0.2-0.9-0.3-1.9-0.4-2.8c-0.1-0.8-0.1-1.6-0.1-2.4c0-0.6,0-1.2,0-1.8C222.5,251.2,222.5,250.7,222.6,250.2z"/>
	<path class="st2" d="M250.6,246c-0.2,0.5-0.4,0.9-0.7,1.4c-0.3,0.4-0.6,1-0.9,1.6s-0.7,1.3-1.1,2.1c-0.9,1.9-1.7,3.8-2.4,5.8
		c-0.8,2.4-1.4,4.9-1.9,7.4c-0.4,2.5-0.7,5-0.8,7.6c0,2.1,0,4.2,0.3,6.2c0.1,0.9,0.2,1.7,0.3,2.4s0.2,1.3,0.3,1.8
		c0.1,0.5,0.2,1,0.2,1.5c-0.2-0.5-0.3-1-0.4-1.5c-0.2-0.6-0.3-1.2-0.4-1.8c-0.1-0.7-0.3-1.5-0.4-2.4c-0.3-2.1-0.4-4.2-0.4-6.3
		c0-2.6,0.3-5.1,0.7-7.7c0.5-2.5,1.1-5,2-7.5c0.7-2,1.5-3.9,2.5-5.8c0.4-0.8,0.8-1.5,1.2-2.1c0.3-0.5,0.6-1,1-1.5
		C250,246.8,250.2,246.4,250.6,246z"/>
	<path class="st2" d="M270.2,254.5c-0.3,0.4-0.7,0.8-1.1,1.2c-0.4,0.4-0.8,0.8-1.3,1.4s-1.1,1.2-1.7,1.9c-1.4,1.7-2.8,3.4-4,5.2
		c-1.5,2.2-2.8,4.6-4,7c-1.1,2.4-2.1,5-2.9,7.5c-0.6,2.1-1.1,4.2-1.5,6.4c-0.2,0.9-0.3,1.8-0.4,2.5s-0.2,1.4-0.2,1.9
		c0,0.5-0.1,1.1-0.2,1.6c0-0.5,0-1.1,0-1.6c0-0.5,0-1.2,0.1-1.9s0.1-1.6,0.3-2.5c0.3-2.2,0.8-4.4,1.4-6.5c0.8-2.6,1.7-5.1,2.9-7.6
		c1.2-2.4,2.5-4.8,4-7.1c1.3-1.8,2.6-3.6,4.1-5.2c0.6-0.7,1.2-1.3,1.8-1.8s1-1,1.4-1.3C269.2,255.1,269.7,254.8,270.2,254.5z"/>
	<path class="st2" d="M288.2,264.9c-0.2,0.5-0.4,1-0.7,1.5c-0.5,1-1.2,2.3-2.2,4c-1.9,3.3-4.6,7.9-7.7,12.9s-6.1,9.3-8.3,12.5
		c-1.1,1.6-2,2.8-2.7,3.7c-0.3,0.5-0.6,0.9-1,1.3c0.3-0.5,0.6-1,0.9-1.4l2.5-3.8c2.1-3.2,5-7.6,8.2-12.5s5.8-9.5,7.8-12.8l2.3-3.9
		C287.6,265.8,287.8,265.3,288.2,264.9z"/>
	<path class="st2" d="M308.8,274.1c0,0,0,0.1-0.2,0.4l-0.6,1.2c-0.6,1-1.4,2.5-2.5,4.2c-2.2,3.5-5.3,8.4-9.1,13.4
		s-7.5,9.4-10.3,12.5c-1.4,1.5-2.5,2.8-3.4,3.6l-1,0.9c-0.1,0.1-0.2,0.2-0.3,0.3c0,0,0.1-0.1,0.3-0.4l0.9-1l3.2-3.7
		c2.7-3.1,6.4-7.5,10.2-12.6s7-9.8,9.2-13.3l2.6-4.1l0.7-1.1C308.6,274.3,308.7,274.2,308.8,274.1z"/>
	<path class="st2" d="M326.6,286.5c0,0.2,0,0.3-0.1,0.5l-0.4,1.3c-0.2,0.5-0.4,1.2-0.7,2s-0.6,1.7-1,2.6c-1,2.2-2,4.4-3.2,6.6
		c-2.9,5.2-6.4,10.1-10.5,14.5c-1.7,1.8-3.4,3.5-5.3,5.1c-0.8,0.7-1.5,1.3-2.2,1.8s-1.2,1-1.7,1.3l-1.1,0.8
		c-0.1,0.1-0.3,0.2-0.4,0.2c0,0,0.1-0.1,0.3-0.3l1-0.9c0.5-0.4,1-0.8,1.6-1.4s1.3-1.1,2.1-1.9c1.5-1.4,3.3-3.1,5.2-5.1
		c2-2.2,3.9-4.5,5.7-6.9c1.7-2.4,3.4-4.9,4.8-7.5c1.3-2.4,2.5-4.6,3.3-6.5c0.5-0.9,0.8-1.8,1.1-2.6s0.6-1.4,0.8-2s0.4-0.9,0.5-1.2
		C326.4,286.8,326.5,286.7,326.6,286.5z"/>
	<path class="st2" d="M342.1,303.4c-0.1,0.5-0.2,1-0.4,1.4c-0.3,0.9-0.8,2.2-1.5,3.8c-3.7,8.3-9.1,15.7-15.8,21.8
		c-1.3,1.2-2.3,2.1-3.1,2.6c-0.4,0.3-0.8,0.6-1.2,0.9c0.3-0.4,0.7-0.7,1.1-1c0.7-0.6,1.8-1.6,3-2.8c6.5-6.2,11.8-13.6,15.7-21.7
		c0.7-1.5,1.3-2.8,1.7-3.7C341.7,304.3,341.9,303.8,342.1,303.4z"/>
	<path class="st2" d="M359.5,312.2c0,0.3-0.1,0.7-0.2,1c-0.2,0.7-0.5,1.6-0.9,2.8c-2.1,6-5.3,11.7-9.3,16.6c-0.8,1-1.4,1.7-1.9,2.2
		s-0.7,0.8-0.8,0.7s0.9-1.2,2.4-3.2c1.9-2.6,3.6-5.2,5.2-8c1.5-2.8,2.9-5.6,4-8.6C358.9,313.6,359.4,312.1,359.5,312.2z"/>
	<path class="st2" d="M228.6,279.5c-0.1,0.1-0.1,0.3-0.2,0.4c-0.2,0.3-0.5,0.7-0.8,1.1c-0.7,1-1.7,2.3-2.9,4
		c-2.5,3.3-6.1,7.9-10.2,12.7s-8,9.1-10.9,12.1c-1.4,1.5-2.6,2.7-3.5,3.5l-1,0.9c-0.1,0.1-0.2,0.2-0.4,0.3c0,0,0.1-0.1,0.3-0.4
		l0.9-1l3.3-3.6c2.8-3.1,6.7-7.4,10.8-12.2s7.7-9.3,10.3-12.6l3.1-3.9l0.8-1C228.5,279.6,228.6,279.5,228.6,279.5z"/>
	<path class="st2" d="M233.4,272.5c0.1,0.1-1.4,0.8-3,2s-2.8,2.3-2.9,2.2c0.6-1.1,1.5-1.9,2.6-2.6
		C231.1,273.3,232.2,272.8,233.4,272.5z"/>
	<path class="st2" d="M338.6,336.4l-0.3-0.1l-0.9-0.2c-0.8-0.2-1.9-0.5-3.4-1c-4.1-1.4-8.1-3-12-4.9c-5.7-2.8-11.3-6.1-16.5-9.7
		c-6-4.1-12.3-8.9-18.8-14.1s-12.8-10-18.7-14.2c-5.2-3.7-10.6-7.2-16.2-10.2c-3.8-2.1-7.7-3.9-11.6-5.5c-1.4-0.6-2.5-1-3.3-1.3
		l-0.8-0.3c-0.2-0.1-0.3-0.1-0.3-0.1l0.3,0.1l0.9,0.3c0.8,0.3,1.9,0.6,3.3,1.2c4,1.5,7.9,3.4,11.7,5.4c5.6,3.1,11,6.4,16.3,10.2
		c5.9,4.1,12.2,9,18.7,14.2s12.8,10,18.7,14.1c5.2,3.6,10.7,6.9,16.4,9.8c3.9,1.9,7.8,3.6,11.9,5c1.4,0.5,2.6,0.9,3.3,1.1l0.9,0.3
		C338.4,336.3,338.5,336.3,338.6,336.4z"/>
	<path class="st2" d="M361.8,328c0,0-3.1-0.6-8.5-2.2c-7.7-2.3-15.2-5.2-22.4-8.8c-10.6-5.3-20.9-11.4-30.6-18.2
		c-11.9-8.3-23.4-17.3-34.4-26.9c-7.4-6.4-14.5-12.7-21.2-18.6h0.1l-4.4-1.8h0.1c-2.8,0.1-5.5,1.1-7.6,2.9c-2.1,1.7-4,3.6-5.6,5.8
		c-3.3,4.1-6.5,8.1-9.5,11.8c-6,7.5-11.2,14.1-15.4,19.8s-7.5,10.2-9.6,13.3l-2.5,3.6l-0.6,0.9c-0.1,0.1-0.1,0.2-0.2,0.3
		c0.1-0.1,0.1-0.2,0.2-0.3l0.6-1c0.5-0.8,1.3-2.1,2.4-3.6c2.1-3.2,5.3-7.8,9.5-13.4s9.3-12.3,15.3-19.8l9.5-11.8
		c1.7-2.2,3.6-4.1,5.7-5.8c2.2-1.9,5-3,7.9-3h0.1l4.4,1.8l0,0l0,0c6.7,5.9,13.7,12.2,21.2,18.6c11,9.6,22.5,18.6,34.4,27
		c9.7,6.8,19.9,13,30.5,18.3c7.2,3.5,14.6,6.5,22.3,8.9c2.7,0.8,4.8,1.4,6.3,1.8l1.6,0.4C361.6,327.9,361.8,328,361.8,328z"/>
	<path class="st2" d="M334.7,292.2h-0.2h-0.7c-0.6,0-1.5,0-2.6-0.1c-3.2-0.2-6.3-0.8-9.4-1.6c-4.6-1.2-9-2.9-13.2-5.1
		c-5.2-2.6-10.1-5.7-14.8-9.1c-5-3.6-9.5-7.3-13.6-10.7s-7.8-6.4-11-8.9s-5.8-4.4-7.6-5.7l-2.1-1.5l-0.5-0.4l-0.2-0.1
		c0,0,0.1,0,0.2,0.1l0.6,0.4c0.5,0.3,1.2,0.8,2.2,1.4c1.9,1.3,4.5,3.1,7.7,5.6s6.9,5.5,11.1,8.8s8.7,7,13.6,10.6
		c4.6,3.4,9.6,6.4,14.7,9.1c4.2,2.2,8.6,3.9,13.1,5.2c3.1,0.9,6.2,1.4,9.3,1.8c1.1,0.1,2,0.1,2.6,0.2l0.7,0
		C334.5,292.1,334.6,292.2,334.7,292.2z"/>
	<path class="st3" d="M287.4,264.9L287.4,264.9c1.1-1.6,0.6-3.8-1.1-4.9c0,0,0,0-0.1,0l-41.5-25.5l-7.5-51.9c-0.2-1.5-1.5-2.6-3-2.5
		l0,0c-1.6,0-2.9,1.4-2.9,3c0,0.1,0,0.2,0,0.3l7.3,54.5L287.4,264.9z"/>
	<path class="st2" d="M365.2,182.4c1.2,1.1,17.3,7.4,18.8,20.6c0.7,5.9-14.7,105.4-14.7,105.4l-1.8,0.5c-10.6,3.1-22.1-0.7-28.8-9.5
		l-3-4.1c-2.4-3.3-5.4-6.1-8.7-8.5l-16.3-12.4l11.9-10.9l-1.2-12.1c0,0-5.2-18.6-2.3-27.9s16.9-28.8,16.9-28.8l6.9-7.8L365.2,182.4z
		"/>
	<path class="st3" d="M367.3,298.3c-0.2,0.2-0.5,0.4-0.7,0.6c-0.3,0.2-0.6,0.4-0.9,0.6c-0.4,0.2-0.8,0.5-1.3,0.6
		c-1.1,0.5-2.3,0.9-3.5,1.2c-3,0.7-6.1,0.6-9.1-0.1c-1.2-0.3-2.4-0.8-3.5-1.3c-0.4-0.2-0.9-0.4-1.3-0.7c-0.3-0.2-0.6-0.4-0.9-0.6
		c-0.5-0.4-0.7-0.6-0.7-0.6s1.1,0.7,3,1.5c1.1,0.5,2.3,0.9,3.5,1.2c2.9,0.7,5.9,0.7,8.8,0.1c1.2-0.2,2.4-0.6,3.5-1
		C366.1,298.9,367.2,298.2,367.3,298.3z"/>
	<path class="st3" d="M366.3,289.8c-0.5,0.5-1,1-1.7,1.3c-2.9,1.9-6.3,2.8-9.8,2.8c-0.7,0-1.4,0-2.1-0.2c2.4-0.1,4.8-0.4,7.1-1
		C362.1,291.9,364.3,291,366.3,289.8z"/>
	<path class="st2" d="M370.8,187.9c0,0-16.3-3.9-20.3,11.7c-2.9,10.7-6.6,21.3-10.8,31.6l37.2,7.8C376.9,239,389,197.7,370.8,187.9z
		"/>
	<path class="st3" d="M376.9,239c-0.2,0-0.5,0-0.7-0.1l-2.1-0.4l-7.9-1.6l-26.6-5.5l-0.3-0.1l0.1-0.3c0.8-2,1.5-4,2.2-6.2
		c2-5.8,3.7-11.4,5-16.6c0.3-1.3,0.6-2.6,0.9-3.8s0.7-2.4,1.2-3.5s0.8-2.2,1.3-3.2c0.4-1,0.9-2,1.4-2.9c1-1.5,2.4-2.8,3.9-3.9
		c1.1-0.8,2.4-1.4,3.7-1.9c0.8-0.3,1.7-0.5,2.5-0.6c0.3,0,0.6,0,0.9,0c0,0-0.3,0-0.9,0.1c-0.8,0.1-1.7,0.4-2.5,0.7
		c-1.3,0.5-2.5,1.2-3.6,2c-1.5,1-2.7,2.3-3.8,3.8c-0.5,0.9-1,1.8-1.4,2.8c-0.4,1-0.8,2.1-1.3,3.2s-0.8,2.3-1.1,3.5s-0.6,2.5-0.9,3.8
		c-1.3,5.2-2.9,10.8-4.9,16.7c-0.7,2.1-1.5,4.2-2.3,6.2l-0.2-0.4l26.5,5.7l7.8,1.7l2.1,0.5C376.4,238.9,376.6,238.9,376.9,239z"/>
	<path class="st3" d="M335,248.7c-0.6,0-1.2-0.1-1.7-0.4c-2.7-1-5-2.8-6.5-5.3c-0.3-0.5-0.6-1-0.7-1.6c1.1,1.6,2.4,3.1,3.8,4.4
		C331.5,247,333.2,248,335,248.7z"/>
	<path class="st3" d="M378,232.5c0-0.5,0.1-0.9,0.2-1.4c0.2-0.9,0.5-2.2,0.7-3.8c1.5-8.4,1.4-17-0.2-25.3c-0.3-1.6-0.6-2.9-0.8-3.8
		c-0.1-0.5-0.2-0.9-0.3-1.4c0.2,0.4,0.3,0.9,0.5,1.4c0.3,0.9,0.6,2.2,1,3.8c1.8,8.4,1.9,17.1,0.2,25.5c-0.3,1.6-0.6,2.9-0.9,3.8
		C378.4,231.6,378.2,232.1,378,232.5z"/>
	<path class="st3" d="M327.7,176.7c1.4,4.1-1.1,8.5-3.8,11.9s-5.8,7-5.9,11.4c0,2.4,0.9,4.6,1.5,6.9s0.9,4.8-0.2,6.9
		c-1.3,2.4-4.2,3.6-5.4,6c-0.8,1.8-0.8,3.9,0,5.7c0.8,1.8,1.9,3.4,3.2,4.9c0.6,0.8,1.5,1.6,2.4,1.3c0.5-0.3,1-0.8,1.2-1.3
		c5-10.2,9.8-20.5,14.3-30.9c1.1-2.2,1.8-4.6,2.1-7c0.4-5.1-2.6-10-2.1-15.1"/>
	<path class="st3" d="M326.1,128.9c-4.2,2.7-5.9,8.4-5.1,11.7c0.4,1.7,1.2,3.4,0.8,5.1c-0.3,1.5-1.3,2.6-2.1,3.9
		c-3.4,5.6-1.7,12.8,3.9,16.2c3.3,2,7.3,2.3,10.9,0.8"/>
	<path class="st3" d="M323.6,150.9c-10.3-22.7,14.2-34.1,27.6-30.3c12.6,3.6,18,9.8,20,18.2s2,17.5-1.3,25.6c-1.6,3.9-4.6,8-8.8,8.5
		"/>
	<path class="st14" d="M335.6,198c-0.2-10.8-0.2-17.3-0.2-17.2s-9.3-1.6-11.3-13.7c-1-6.1-0.7-16-0.2-24.1
		c0.5-7.3,5.3-16.2,12.6-15.5l22.7,5.7c2.2,0.2,3.9,2.1,3.8,4.3l0,0l-1.5,46.9"/>
	<path class="st3" d="M326.7,150.9c0,0.8,0.6,1.5,1.5,1.6c0.8,0.1,1.5-0.5,1.6-1.3c0,0,0,0,0,0c0-0.8-0.6-1.5-1.5-1.6
		C327.5,149.5,326.8,150.1,326.7,150.9C326.7,150.9,326.7,150.9,326.7,150.9z"/>
	<path class="st3" d="M342.6,150.9c0,0.8,0.6,1.5,1.5,1.6c0.8,0.1,1.5-0.5,1.6-1.3c0,0,0,0,0,0c0-0.8-0.6-1.5-1.5-1.6
		C343.4,149.5,342.6,150.1,342.6,150.9C342.6,150.9,342.6,150.9,342.6,150.9z"/>
	<path class="st3" d="M326.3,147.6c0.2,0.2,1.4-0.6,3.1-0.6s2.9,0.9,3.1,0.7s-0.1-0.5-0.6-0.9c-0.7-0.5-1.6-0.8-2.5-0.8
		c-0.9,0-1.7,0.2-2.5,0.7C326.4,147.1,326.3,147.5,326.3,147.6z"/>
	<path class="st3" d="M342.3,148c0.2,0.2,1.4-0.7,3-0.7s2.9,0.8,3.1,0.6s-0.1-0.5-0.7-0.9c-0.7-0.5-1.6-0.8-2.5-0.8
		c-0.9,0-1.7,0.3-2.4,0.8C342.4,147.5,342.2,147.9,342.3,148z"/>
	<path class="st3" d="M336.6,160.9c-0.9-0.3-1.8-0.5-2.7-0.5c-0.4,0-0.8-0.1-0.9-0.4c0-0.4,0.1-0.9,0.3-1.3c0.4-1,0.8-2.1,1.3-3.3
		c1.8-4.6,3-8.5,2.8-8.5s-1.8,3.6-3.5,8.3c-0.4,1.1-0.8,2.2-1.2,3.3c-0.3,0.5-0.4,1.1-0.2,1.7c0.1,0.3,0.4,0.5,0.7,0.6
		c0.2,0.1,0.5,0.1,0.7,0.1C334.7,161,335.6,161,336.6,160.9z"/>
	<path class="st15" d="M335.4,180.7c5.7,0.1,11.4-1.4,16.3-4.3c0,0-4.1,8.5-16.3,7.3V180.7z"/>
	<path class="st15" d="M337.2,164.9c0.6-0.8,1.7-1.2,2.7-1.1c0.7,0.1,1.4,0.4,1.9,1c0.5,0.6,0.5,1.4,0.1,2c-0.5,0.6-1.4,0.8-2.2,0.6
		c-0.8-0.3-1.5-0.7-2.2-1.3c-0.2-0.1-0.3-0.3-0.5-0.5C337,165.4,337,165.1,337.2,164.9"/>
	<path class="st3" d="M341.5,162c-0.3,0-0.3,1.8-1.8,3.1s-3.5,1.1-3.5,1.4s0.4,0.4,1.3,0.4c1.1,0,2.1-0.3,2.9-1
		c0.8-0.7,1.3-1.6,1.4-2.6C341.8,162.5,341.6,162,341.5,162z"/>
	<path class="st3" d="M341.9,145.5c0.2,0.5,1.8,0.2,3.8,0.5s3.6,0.8,3.8,0.4c0.1-0.2-0.2-0.6-0.8-1.1c-1.7-1.1-3.9-1.3-5.8-0.6
		C342.2,144.9,341.8,145.3,341.9,145.5z"/>
	<path class="st3" d="M326.7,143.3c0.3,0.4,1.5,0,2.8,0s2.6,0.3,2.8-0.1c0.1-0.2-0.1-0.6-0.6-0.9c-0.7-0.4-1.5-0.7-2.3-0.6
		c-0.8,0-1.6,0.3-2.3,0.8C326.8,142.7,326.6,143.1,326.7,143.3z"/>
	<path class="st14" d="M361,153.5c0.2-0.1,6.5-2.9,6.6,4.4s-7.3,5.9-7.3,5.6S361,153.5,361,153.5z"/>
	<path class="st15" d="M362.5,160.8c0,0,0.1,0.1,0.3,0.2c0.3,0.1,0.6,0.1,0.9,0c1-0.6,1.5-1.7,1.4-2.8c0-0.6-0.1-1.2-0.4-1.8
		c-0.1-0.5-0.5-0.9-1-1c-0.3-0.1-0.6,0.1-0.7,0.4c-0.1,0.2,0,0.4-0.1,0.4s-0.2-0.1-0.1-0.4c0-0.2,0.1-0.3,0.3-0.5
		c0.2-0.1,0.5-0.2,0.7-0.2c0.6,0.1,1.1,0.5,1.3,1.1c0.3,0.6,0.5,1.3,0.5,2c0,1.5-0.8,2.9-1.8,3.2c-0.4,0.1-0.8,0.1-1.2-0.2
		C362.5,160.9,362.5,160.8,362.5,160.8z"/>
	<path class="st3" d="M334.1,123.8c-4,2.1-5.7,10.4-4,14.6s6.2,6.3,10.6,7.3c4.3,1.1,8.9,1,13.2-0.1c0.3,3,2.1,6,5,6.8
		c3.8,1,7.6-2.4,8.5-6.3s-0.4-7.8-1.7-11.5"/>
	<path class="st3" d="M366.2,150.2c0,0-0.2,0.2-0.6,0.5c-0.5,0.4-1.1,0.9-1.7,1.3c-0.9,0.6-1.8,1.1-2.8,1.4
		c-1.3,0.4-2.6,0.4-3.9-0.1c-1.2-0.5-2.3-1.4-2.9-2.5c-0.5-0.9-0.9-1.9-1-3c-0.1-0.7-0.1-1.4-0.1-2.1c0-0.3,0-0.5,0.1-0.8
		c0.1,0,0,1.1,0.3,2.8c0.2,1,0.5,2,1.1,2.8c0.6,1.1,1.6,1.9,2.7,2.3c1.2,0.4,2.4,0.4,3.6,0.1c1-0.3,1.9-0.7,2.8-1.3
		C365.3,150.9,366.2,150.2,366.2,150.2z"/>
	<path class="st3" d="M384.3,186c-0.8-1.8-1.8-3.5-3-5.1l-0.6-0.8c3.2-2.4,4.6-6.3,4-11.2c-0.4-2.9-1.5-4.9-6.2-10.7
		c-3.8-4.8-6.1-10.7-6.7-16.8l-3.3,9.3l1.3,10.7l-3.1,6.4l-1.9,0.8l-3-4.9c-2,5.5-4,7.2-8.1,10s-8.2,4.5-11.6,10.5
		c-0.9,1.6-7.2,23.9-6.1,24.9c0,0,11.7-12.7,15.5-16.2c4.6-4.2,8.6-5.9,14.1-5.4c3.9,0.7,6.4,0.7,9.2,3.5c1.3,1.4,2.6,3,4.5,3.4
		c2,0.2,3.9-0.8,4.8-2.7C385,189.9,385,187.9,384.3,186z"/>
	<path class="st4" d="M381.5,181.1c0,0-0.1-0.3-0.5-0.7c-0.5-0.7-1.1-1.2-1.8-1.6c-1.1-0.6-2.3-1.2-3.6-1.6
		c-0.8-0.3-1.6-0.6-2.3-0.9c-0.9-0.4-1.6-0.9-2.3-1.6c-0.7-0.7-1.3-1.6-1.5-2.6c-0.3-1.1-0.4-2.2-0.2-3.3c0.2-2.3,1.2-4.6,2-7
		c0.4-1.2,0.7-2.5,0.7-3.8c0.1-1.4-0.2-2.7-0.9-3.9c-0.3-0.6-0.8-1.1-1.3-1.6c-0.6-0.4-1.2-0.7-1.9-0.9c-0.7-0.2-1.4-0.3-2.1-0.4
		c-0.7-0.1-1.5-0.4-2.1-0.8c-0.6-0.5-1.1-1.1-1.4-1.8c-0.3-0.7-0.6-1.4-0.8-2c-0.6-1.3-1.5-2.3-2.8-3c-1.2-0.6-2.5-1.1-3.8-1.2
		c-1.3-0.1-2.6-0.2-3.9-0.1c-1.3,0-2.5,0.1-3.8,0c-3.3-0.2-6.5-1.5-9-3.7c-1.3-1.2-2.4-2.6-3.2-4.1c-0.6-1.2-1.1-2.4-1.3-3.7
		c-0.2-0.8-0.3-1.7-0.3-2.5c0-0.3,0-0.6,0-0.9c0,0.1,0,0.1,0,0.2c0,0.1,0,0.4,0,0.6c0,0.8,0.2,1.7,0.3,2.5c0.3,1.3,0.7,2.5,1.3,3.7
		c0.8,1.5,1.9,2.9,3.2,4.1c1.6,1.4,3.5,2.4,5.5,3c1.1,0.3,2.3,0.5,3.5,0.6c1.2,0.1,2.5,0,3.7,0c1.3-0.1,2.6,0,4,0.1
		c1.4,0.2,2.7,0.6,3.9,1.2c0.6,0.3,1.2,0.8,1.7,1.3c0.5,0.5,0.9,1.2,1.2,1.8c0.3,0.7,0.5,1.4,0.8,2c0.3,0.7,0.7,1.2,1.3,1.7
		c0.6,0.4,1.3,0.7,2,0.8c0.7,0.2,1.4,0.3,2.1,0.4c0.7,0.2,1.4,0.5,2,0.9c0.6,0.5,1,1,1.4,1.6c0.6,1.2,0.9,2.6,0.9,4
		c-0.1,1.3-0.3,2.6-0.8,3.9c-0.8,2.4-1.8,4.7-2,7c-0.1,1.1-0.1,2.2,0.2,3.2c0.3,1,0.8,1.9,1.5,2.6c0.7,0.6,1.4,1.2,2.3,1.5
		c0.7,0.3,1.5,0.6,2.3,0.9c1.3,0.4,2.5,0.9,3.6,1.6c0.7,0.4,1.3,1,1.8,1.7C381.2,180.6,381.4,180.9,381.5,181.1z"/>
	<path class="st4" d="M378.7,175.9c0,0,0-0.1,0.2-0.1s0.3-0.2,0.5-0.3c0.6-0.4,1.1-1,1.5-1.6c0.7-1,1.1-2.1,1.3-3.2
		c0.3-1.5,0.3-3.1-0.1-4.6c-0.5-1.8-1.3-3.5-2.3-5.1c-1.2-1.8-2.5-3.5-3.9-5.2c-1.6-1.8-3-3.8-4.1-5.9c-1.2-2.2-1.7-4.8-2.7-7.2
		c-0.5-1.2-1.2-2.3-2.1-3.2c-0.9-0.9-1.9-1.6-3-2.2c-2.2-1-4.5-1.6-6.8-2c-2.1-0.4-4.3-0.9-6.3-1.6c-1.8-0.6-3.5-1.4-5.2-2.3
		c-2.4-1.4-4.4-3.2-6-5.5c-0.4-0.6-0.8-1.3-1.1-1.9c-0.1-0.2-0.2-0.4-0.2-0.5s-0.1-0.2-0.1-0.2l0.1,0.2c0.1,0.1,0.1,0.3,0.3,0.5
		c0.3,0.7,0.7,1.3,1.1,1.9c1.6,2.2,3.6,4.1,6,5.4c1.6,0.9,3.4,1.7,5.2,2.3c2.1,0.6,4.2,1.1,6.3,1.5c2.4,0.4,4.7,1,6.9,2
		c1.2,0.6,2.2,1.3,3.1,2.2c0.9,1,1.6,2.1,2.1,3.3c1,2.5,1.5,5,2.6,7.2c1.2,2.1,2.5,4.1,4.1,5.9c1.4,1.7,2.7,3.4,3.9,5.2
		c1.1,1.6,1.8,3.3,2.3,5.2c0.4,1.5,0.4,3.1,0.1,4.7c-0.2,1.2-0.7,2.3-1.4,3.2c-0.4,0.6-1,1.1-1.6,1.6
		C379.1,175.6,378.9,175.8,378.7,175.9z"/>
	<path class="st4" d="M343.4,189.8c0-0.1,0-0.3,0-0.4c0-0.4,0-0.7,0-1.1c0.1-1.4,0.4-2.7,0.9-4c0.8-1.9,1.9-3.6,3.3-5
		c1.7-1.8,3.7-3.2,5.9-4.4c2.3-1.2,4.7-2,6.7-3.1c0.9-0.5,1.8-1.1,2.6-1.8c0.7-0.6,1.3-1.3,1.8-2.1c0.7-1.1,1.1-2.5,1.1-3.8
		c0-0.5-0.1-1-0.3-1.4c0.1,0.1,0.1,0.2,0.1,0.4c0.1,0.4,0.2,0.7,0.2,1.1c0.1,1.4-0.3,2.7-1,3.9c-0.5,0.8-1.1,1.5-1.8,2.2
		c-0.8,0.7-1.7,1.3-2.7,1.8c-2,1.1-4.4,1.9-6.7,3.1c-2.2,1.1-4.2,2.6-5.9,4.3c-1.4,1.4-2.5,3.1-3.3,4.9c-0.5,1.2-0.9,2.6-1,3.9
		c0,0.5,0,0.8,0,1.1S343.4,189.8,343.4,189.8z"/>
	<path class="st4" d="M367,132.4c0,0-0.1-0.4-0.4-1.1c-0.5-0.9-1.1-1.8-1.9-2.4c-1.2-1-2.6-1.7-4.1-2.2c-1.8-0.5-3.7-0.8-5.6-0.9
		c-3.5-0.3-6.9-0.9-10.3-2c-1.3-0.4-2.3-0.8-3-1.1c-0.3-0.1-0.6-0.3-0.8-0.3s-0.3-0.1-0.3-0.1c0.1,0,0.2,0,0.3,0.1l0.8,0.3
		c0.7,0.3,1.7,0.6,3,1c3.3,1,6.8,1.6,10.2,1.9c1.9,0.1,3.8,0.5,5.7,1c1.5,0.4,2.9,1.2,4.1,2.3c0.8,0.7,1.5,1.6,1.9,2.5
		c0.1,0.3,0.2,0.5,0.3,0.8C366.9,132.2,366.9,132.3,367,132.4z"/>
	<path class="st3" d="M353.8,121.5c-1.6-2.6-0.8-6.2,1.3-8.4c2.2-2.1,5.1-3.5,8.1-3.8c2.1-0.4,4.3-0.3,6.3,0.3
		c2.1,0.7,3.6,2.4,4.1,4.6c0.4,2.3-1,4.6-2.8,6.3c-0.6,0.4-0.9,1-1.1,1.7c0,0.7,0.6,1.3,1,1.9c1,1.1,1.5,2.4,1.5,3.9
		c0,1.4-0.9,2.7-2.3,3.3c-1.4,0.5-3,0-4.4-0.6l-8.9-3.5"/>
	<path class="st2" d="M368.4,129.6c-0.1,0.1-2.6-2.2-6.2-4.4s-6.7-3.5-6.7-3.6c0.7,0.1,1.5,0.4,2.1,0.7c3.3,1.4,6.4,3.3,9.2,5.7
		C367.4,128.4,368,129,368.4,129.6z"/>
	<path class="st14" d="M345,232.6l-9.8,23.7l-42.8-8.2c0,0-18.3-14.2-18.9-14.7l-5.3,0.7l-8.6-0.2L252,238l-1.3,0.2l35.7,22.1
		l41.5,23.6c5.5,3.7,12.6,4.4,18.7,1.9l0,0c5.2-2.1,9.3-6.4,11.2-11.7l13.4-36.3L345,232.6z"/>
	<path class="st15" d="M252.4,237.8c0.7-0.3,1.5-0.5,2.3-0.6c1.5-0.3,3.5-0.7,5.7-1.1l2.1-0.4h0.1h0.1c1.7,0.5,3.1,1,4.1,1.4
		c0.6,0.1,1.1,0.4,1.6,0.7c-0.6-0.1-1.1-0.2-1.7-0.4c-1-0.3-2.5-0.7-4.2-1.2h0.1l-2.1,0.4c-2.2,0.4-4.2,0.7-5.7,0.9
		C254,237.7,253.2,237.8,252.4,237.8z"/>
	<path class="st15" d="M254.6,240.6c2.3-0.3,4.7-0.4,7-0.4h1.7h0l0,0c1.7,0.7,3.3,1.5,4.8,2.5c-1.7-0.5-3.4-1.2-5-2h0.1h-1.7
		C259.2,240.8,256.9,240.8,254.6,240.6z"/>
	<path class="st15" d="M345,232.6c0,0.2-0.1,0.3-0.1,0.5l-0.5,1.3l-1.9,4.8l-7,17.2l-0.1,0.2h-0.2l-20.5-3.9l-22.2-4.3h0l0,0
		l-13.6-10.7l-3.8-3l-1-0.8c-0.1-0.1-0.2-0.2-0.3-0.3c0.1,0.1,0.3,0.2,0.4,0.3l1,0.8l3.9,2.9c3.4,2.6,8.1,6.2,13.8,10.6l-0.1,0
		l22.2,4.2l20.5,4l-0.3,0.1l7.2-17.1c0.9-2,1.6-3.7,2.1-4.8c0.2-0.5,0.4-1,0.6-1.3C344.8,233,344.9,232.8,345,232.6z"/>
	<path class="st15" d="M341.2,273.3c-0.2-0.9-0.4-1.7-0.5-2.6c-0.4-2.1-1-4.2-1.7-6.2c-0.7-2-1.6-4-2.7-5.9
		c-0.5-0.8-0.9-1.6-1.3-2.4c0.6,0.7,1.2,1.4,1.6,2.2c1.1,1.9,2.1,3.8,2.8,5.9c0.7,2.1,1.3,4.2,1.6,6.4
		C341.2,271.5,341.3,272.4,341.2,273.3z"/>
</g>
<g id="freepik--coffee-2--inject-159">
	<polygon class="st2" points="284.5,336.3 289.6,307.4 263,307.1 267.2,336.3 	"/>
	<path class="st2" d="M288.7,313.7c0,0,12-1.2,11.1,8.7s-14.4,7.1-14.4,7.1v-3.8c0,0,10.7-0.2,9.4-4.3s-8.3-3.5-8.3-3.5L288.7,313.7
		z"/>
	<path class="st2" d="M259.5,282.5c0.1-1.5,0.5-2.9,1.2-4.2c0.6-1.1,1.3-2,2.2-2.9c0.9-0.8,1.9-1.6,2.9-2.2c0.2-0.1,0.4-0.2,0.6-0.2
		c0.2-0.1,0.4-0.2,0.5-0.3c0.8-0.7,1.3-1.6,1.7-2.5c0.3-0.9,0.7-1.7,1.4-2.4c0.6-0.5,1.8-0.5,3.1,0.5c1.7,1.7,2.6,4.1,2.3,6.5
		c-0.1,0.9-0.2,1.7-0.5,2.5c-0.3,0.9-0.8,1.7-1.3,2.5c-1,1.4-1.9,2.5-2.2,3.1l-0.1,0.2h0.3l0,0c0,0.1,0.1,0.1,0.1,0.2
		c0.1,0.2,0.2,0.5,0.3,0.7c0.2,0.3,0.4,0.6,0.6,0.9c0.2,0.3,0.5,0.7,0.9,1.1c0.8,0.9,1.7,1.9,2.7,3.1c1,1.3,1.9,2.6,2.6,4.1
		c0.7,1.6,1.1,3.3,1.1,5c0,3-1.5,5.6-3.2,6.5s-2.8,0.5-3.2-0.2c-0.3-0.8-0.6-1.7-0.7-2.5c-0.4-0.9-0.9-1.7-1.5-2.4
		c-0.3-0.4-0.7-0.7-1.2-1c-0.5-0.4-1.2-0.9-2-1.5s-1.9-1.4-3.2-2.5c-0.7-0.6-1.4-1.3-2-2c-0.7-0.8-1.3-1.8-1.8-2.7
		C259.8,287.7,259.3,285.1,259.5,282.5z"/>
	<g class="st19">
		<path class="st17" d="M259.5,282.5c0.1-1.5,0.5-2.9,1.2-4.2c0.6-1.1,1.3-2,2.2-2.9c0.9-0.8,1.9-1.6,2.9-2.2
			c0.2-0.1,0.4-0.2,0.6-0.2c0.2-0.1,0.4-0.2,0.5-0.3c0.8-0.7,1.3-1.6,1.7-2.5c0.3-0.9,0.7-1.7,1.4-2.4c0.6-0.5,1.8-0.5,3.1,0.5
			c1.7,1.7,2.6,4.1,2.3,6.5c-0.1,0.9-0.2,1.7-0.5,2.5c-0.3,0.9-0.8,1.7-1.3,2.5c-1,1.4-1.9,2.5-2.2,3.1l-0.1,0.2h0.3l0,0
			c0,0.1,0.1,0.1,0.1,0.2c0.1,0.2,0.2,0.5,0.3,0.7c0.2,0.3,0.4,0.6,0.6,0.9c0.2,0.3,0.5,0.7,0.9,1.1c0.8,0.9,1.7,1.9,2.7,3.1
			c1,1.3,1.9,2.6,2.6,4.1c0.7,1.6,1.1,3.3,1.1,5c0,3-1.5,5.6-3.2,6.5s-2.8,0.5-3.2-0.2c-0.3-0.8-0.6-1.7-0.7-2.5
			c-0.4-0.9-0.9-1.7-1.5-2.4c-0.3-0.4-0.7-0.7-1.2-1c-0.5-0.4-1.2-0.9-2-1.5s-1.9-1.4-3.2-2.5c-0.7-0.6-1.4-1.3-2-2
			c-0.7-0.8-1.3-1.8-1.8-2.7C259.8,287.7,259.3,285.1,259.5,282.5z"/>
	</g>
	<g class="st20">
		<path d="M274.3,324.3c0-1.1,0.3-2.2,0.9-3.1c0.5-0.8,1.1-1.4,1.6-2.1c0.4-0.6,0.8-1.2,1-2c0.1-0.3,0.1-0.6,0.2-0.9l0.1,0.1
			c0.7,0.5,1.2,1.2,1.3,2c0.1,0.8,0.1,1.7-0.1,2.5c-0.2,1-0.6,1.9-1.3,2.6c-0.8,0.8-2,1.2-3.1,1
			C274.7,324.4,274.5,324.4,274.3,324.3z"/>
		<path d="M273.1,321.6c0-1.1,0.3-2.2,0.6-3.2c0.4-1.1,1.3-1.9,2.4-2.2c0.6-0.1,1.2-0.1,1.7,0.1c0,0.3-0.1,0.6-0.2,0.9
			c-0.3,0.7-0.6,1.3-1.1,1.8c-0.5,0.6-1.1,1.3-1.6,2.1c-0.5,0.8-0.8,1.6-0.9,2.5c0,0.2,0,0.4,0,0.5c-0.3-0.2-0.5-0.4-0.7-0.7
			C273,322.9,273,322.2,273.1,321.6z"/>
	</g>
</g>
<g class="st21">
	<path d="M458.6,102.4c0.7,9.8-6.7,18.3-16.5,19c-9.8,0.7-18.3-6.7-19-16.5c-0.7-9.8,6.7-18.3,16.5-19
		C449.4,85.2,457.9,92.5,458.6,102.4C458.6,102.4,458.6,102.4,458.6,102.4z"/>
</g>
<g class="st21">
	<path d="M428,135.6c0.2,2.7-1.9,5.1-4.6,5.3c-2.7,0.2-5.1-1.9-5.3-4.6c-0.2-2.7,1.9-5.1,4.6-5.3C425.5,130.7,427.8,132.8,428,135.6
		C428,135.6,428,135.6,428,135.6z"/>
</g>
</svg>
