<?xml version="1.0" encoding="utf-8"?>
<!-- Generator: Adobe Illustrator 24.0.1, SVG Export Plug-In . SVG Version: 6.00 Build 0)  -->
<svg version="1.1" id="Layer_1" xmlns="http://www.w3.org/2000/svg" xmlns:xlink="http://www.w3.org/1999/xlink" x="0px" y="0px"
	 viewBox="0 0 200 200" style="enable-background:new 0 0 200 200;" xml:space="preserve">
<style type="text/css">
	.st0{fill:#E97F74;}
	.st1{fill:#FED9B3;}
</style>
<g>
	<circle class="st0" cx="100" cy="100" r="95"/>
	<g>
		<path class="st1" d="M122.62,64.37l0.24,0.1c0.3,0.12,0.67,0.28,1.08,0.47c3.07,1.42,5.97,3.16,8.63,5.18
			c2.1,1.59,4.05,3.36,5.83,5.26l8.7-11.84c1.87-2.55,2.64-5.67,2.16-8.79c-0.48-3.12-2.14-5.87-4.69-7.74l-2.18-1.6
			c-2.04-1.5-4.46-2.29-7-2.29c-3.75,0-7.32,1.8-9.54,4.83l-10.37,14.13C117.94,62.63,120.33,63.4,122.62,64.37z"/>
		<path class="st1" d="M146.42,95.12c-2.23-6.11-5.46-11.57-9.6-16.22c-1.95-2.19-4.14-4.22-6.51-6.01
			c-2.66-2.02-5.57-3.76-8.63-5.18c-0.41-0.19-0.78-0.34-1.08-0.47l-0.24-0.1c-5.58-2.36-11.7-3.55-18.18-3.55
			c-4.31,0-8.52,0.5-12.52,1.47c-4.04,0.99-7.87,2.45-11.39,4.34c-0.56,0.3-1.11,0.61-1.66,0.93V55.58
			c0-6.35-5.17-11.52-11.52-11.52h-3.31c-6.35,0-11.52,5.17-11.52,11.52v89.71c0,6.4,5.2,11.6,11.6,11.6h3.75
			c6.38,0,11-4.69,11-11.16v-33.57c0.13-3.23,0.86-6.06,2.23-8.64c1.5-2.82,3.36-5.15,5.67-7.12c2.34-1.99,5.04-3.55,8.02-4.64
			c3.02-1.11,6.01-1.65,9.13-1.65c1.99,0,3.87,0.24,5.57,0.7c1.11,0.3,2.15,0.7,3.09,1.17c0.86,0.44,1.75,0.98,2.79,1.71
			c1.55,1.1,2.84,2.26,3.94,3.55c1.91,2.26,3.42,4.9,4.49,7.85c1.09,3.02,1.72,6.15,1.86,9.3v30.47c0,2.7,0.61,5.05,1.81,6.97
			c0.21,0.35,0.43,0.68,0.68,0.99c1.47,1.85,4.25,4.06,9.2,4.06h2.9c3.23,0,6.21-1.22,8.41-3.43c0.49-0.5,0.83-0.94,1.07-1.29
			c1.05-1.44,2.28-3.88,2.28-7.39v-30.25C149.75,107.7,148.63,101.17,146.42,95.12z"/>
	</g>
</g>
</svg>
