<svg id="Layer_1" data-name="Layer 1" xmlns="http://www.w3.org/2000/svg" viewBox="0 0 134.2 135.37"><defs><style>.cls-1{fill:#c1a5cf;}</style></defs><title>hj_logo</title><path class="cls-1" d="M105.1,69.86A38.53,38.53,0,0,1,120.77,85.8c3.76,7,5.65,14.4,5.65,24.24v26.81c-10.57,0-18.59-5.27-18.59-14.29V110c0-9.84-2.64-16.28-7.93-21.32s-12.3-7.56-21.05-7.56a31.17,31.17,0,0,0-13.94,3.09,24.74,24.74,0,0,0-9.84,8.39,20,20,0,0,0-3.55,10.84v61.21c-6.82,0-18.59-2.47-18.59-15.29V33C45.44,33,52.07,39,51.52,47V76.6a40.51,40.51,0,0,1,13.85-9A46,46,0,0,1,82.5,64.39,46.39,46.39,0,0,1,105.1,69.86Z" transform="translate(-32.93 -32.95)"/><path class="cls-1" d="M164.08,81.12c0-7.54-5.29-15.32-18.58-15.32v61A25.45,25.45,0,0,1,143,138.29a20,20,0,0,1-1,1.79,27.48,27.48,0,0,1-9.37,8.29c-4.53,2.33-10.36,3.13-14.41,3.19q-13.12,0-21.05-7.56c-5.28-5-7.92-13.48-7.92-23.32v-8.12c0-9.72-7.38-14.17-18.59-14.17v22.29c0,9.84,1.88,19.25,5.65,26.23a38.5,38.5,0,0,0,15.67,16c6.68,3.65,17,5.47,25.42,5.47,4.2,0,12.49.11,20.77-3.36a43.86,43.86,0,0,0,15.7-10.72A37.75,37.75,0,0,0,164.1,129V105.16c0-.08,0-.15,0-.23Z" transform="translate(-32.93 -32.95)"/><path class="cls-1" d="M164.06,50.89c-4.1,4.1-10.72,3.84-18.55,3.69,0-6.67-.41-14.45,3.69-18.55a10.51,10.51,0,0,1,14.86,14.86Z" transform="translate(-32.93 -32.95)"/></svg>