<?xml version="1.0" encoding="utf-8"?>
<!-- Generator: Adobe Illustrator 24.0.1, SVG Export Plug-In . SVG Version: 6.00 Build 0)  -->
<svg version="1.1" id="Layer_1" xmlns="http://www.w3.org/2000/svg" xmlns:xlink="http://www.w3.org/1999/xlink" x="0px" y="0px"
	 viewBox="0 0 200 200" style="enable-background:new 0 0 200 200;" xml:space="preserve">
<style type="text/css">
	.st0{fill:#C1A5CF;}
</style>
<g>
	<path class="st0" d="M55.54,152.08c-0.18,0-0.35-0.01-0.53-0.02c-3.56-0.27-6.31-3.26-6.31-6.84V54.78c0-3.78,3.06-6.84,6.84-6.84
		s6.84,3.06,6.84,6.84v54.94c0.99-1.68,2.05-3.39,3.19-5.12c7.99-12.17,18.02-22.85,29.81-31.75c14.65-11.06,32.05-19.36,51.7-24.68
		c2.06-0.56,4.25-0.12,5.94,1.17c1.69,1.29,2.68,3.3,2.68,5.43v90.44c0,2.81-1.72,5.33-4.33,6.36c-2.61,1.03-5.59,0.36-7.51-1.7
		l-39.3-42.1c-2.58-2.76-2.43-7.09,0.33-9.67c2.76-2.58,7.09-2.43,9.67,0.33l27.46,29.42v-63.9c-28.08,9.28-49.81,25.27-64.67,47.61
		c-12.16,18.29-14.99,34.32-15.06,34.73C61.77,149.66,58.88,152.08,55.54,152.08z"/>
	<path class="st0" d="M100,196.44c-13.02,0-25.65-2.55-37.54-7.58c-11.49-4.86-21.8-11.81-30.65-20.67
		c-8.85-8.85-15.81-19.17-20.67-30.65C6.11,125.65,3.56,113.02,3.56,100c0-13.02,2.55-25.65,7.58-37.54
		C16,50.97,22.95,40.66,31.81,31.81C40.66,22.95,50.97,16,62.46,11.14C74.35,6.11,86.98,3.56,100,3.56s25.65,2.55,37.54,7.58
		c11.49,4.86,21.8,11.81,30.65,20.67c8.85,8.85,15.81,19.17,20.67,30.65c5.03,11.89,7.58,24.53,7.58,37.54
		c0,13.02-2.55,25.65-7.58,37.54c-4.86,11.49-11.81,21.8-20.67,30.65c-8.85,8.85-19.17,15.81-30.65,20.67
		C125.65,193.89,113.02,196.44,100,196.44z M100,17.24c-45.64,0-82.76,37.13-82.76,82.76c0,45.64,37.13,82.76,82.76,82.76
		s82.76-37.13,82.76-82.76C182.76,54.36,145.64,17.24,100,17.24z"/>
</g>
</svg>
